<svg xmlns="http://www.w3.org/2000/svg" xmlns:xlink="http://www.w3.org/1999/xlink" width="126" height="69" viewBox="0 0 126 69">
    <defs>
        <path id="prefix__a" d="M0.025 0.165L125.015 0.165 125.015 14.246 0.025 14.246z"/>
    </defs>
    <g fill="none" fill-rule="evenodd">
        <g transform="translate(0 53.728)">
            <mask id="prefix__b" fill="#fff">
                <use xlink:href="#prefix__a"/>
            </mask>
            <path fill="#FFDA1A" d="M110.91 7.218c0-3.895 3.157-7.053 7.052-7.053 3.895 0 7.053 3.158 7.053 7.053s-3.158 7.053-7.053 7.053-7.053-3.158-7.053-7.053" mask="url(#prefix__b)"/>
            <path fill="#FFE781" d="M69.92 12.97c-3.178-2.254-3.925-6.656-1.671-9.834 2.254-3.176 6.656-3.924 9.833-1.67 3.177 2.255 3.925 6.657 1.67 9.834-2.254 3.176-6.656 3.924-9.833 1.67" mask="url(#prefix__b)"/>
            <path fill="#FFE056" d="M91.9 12.97c-3.177-2.254-3.924-6.656-1.67-9.834 2.254-3.176 6.657-3.924 9.833-1.67 3.177 2.255 3.924 6.657 1.67 9.834-2.254 3.176-6.656 3.924-9.833 1.67" mask="url(#prefix__b)"/>
            <path fill="#FFEB95" d="M44.632 7.218c0-3.895 3.158-7.053 7.053-7.053s7.053 3.158 7.053 7.053-3.158 7.053-7.053 7.053-7.053-3.158-7.053-7.053" mask="url(#prefix__b)"/>
            <path fill="#FFEEA7" d="M22.316 7.218c0-3.895 3.158-7.053 7.053-7.053s7.053 3.158 7.053 7.053-3.158 7.053-7.053 7.053-7.053-3.158-7.053-7.053" mask="url(#prefix__b)"/>
            <path fill="#FFF6CF" d="M0 7.218C0 3.323 3.158.165 7.053.165s7.053 3.158 7.053 7.053-3.158 7.053-7.053 7.053S0 11.113 0 7.218" mask="url(#prefix__b)"/>
        </g>
        <path fill="#4C524C" d="M7.666 26.149h5.295c2.491 0 2.491-4.395 0-4.395H7.666v4.395zm0-9.863h4.464c2.042 0 1.972-3.391.07-3.391H7.665v3.391zm5.364-8.755c5.883 0 8.72 7.648 4.083 10.935 2.561 1.315 3.6 3.426 3.6 5.468 0 3.91-2.665 7.82-7.752 7.82H1.818V7.532H13.03zM43.965 19.678c0-9.136-13.254-9.171-13.254 0 0 9.136 13.254 9.067 13.254 0zM37.355 7.15c6.922 0 12.562 5.399 12.562 12.528 0 7.025-5.64 12.423-12.561 12.423-6.922 0-12.528-5.295-12.528-12.423 0-7.13 5.606-12.528 12.528-12.528zM60.816 18.19h3.391c3.564 0 3.6-4.984 0-4.984h-3.391v4.984zm0 5.363v8.202h-5.883V7.53h9.412c9.621 0 11.04 11.87 3.6 15.434l5.19 7.683v1.107h-6.298l-5.052-8.202h-.97zM87.633 4.14c0 .519.45.795 1.003.795.623 0 1.038-.276 1.038-.795 0-.52-.415-.866-1.038-.866-.553 0-1.003.346-1.003.866zm-.727 17.994l-.208.554h4.014l-.138-.415-1.868-5.26-1.8 5.121zM84.52 4.14c0-2.32 1.937-3.738 4.117-3.738 2.146 0 4.153 1.419 4.153 3.738 0 2.283-2.007 3.703-4.153 3.703-2.18 0-4.117-1.42-4.117-3.703zm8.305 24.05h-8.271l-1.35 3.565H76.87l9.69-24.5h4.222l10.07 24.5h-6.679l-1.35-3.564zM116.215 15.179c0-1.627-1.315-2.492-3.149-2.492s-3.115.796-3.115 2.111c0 1.8 2.873 1.834 3.669 1.904 3.426.45 7.752 1.35 8.79 5.71.104.553.173 1.176.173 1.695 0 5.053-4.914 7.96-9.517 7.96-3.945 0-9.308-2.423-9.308-8.583h5.986c0 2.388 2.007 2.838 3.357 2.838 1.938 0 3.495-.554 3.495-1.938 0-1.73-2.769-1.8-3.669-1.903-3.91-.381-8.547-1.246-8.997-6.818v.035c-.277-5.33 4.084-8.513 9.24-8.513 4.326 0 8.997 2.422 8.997 7.994h-5.952M3.944 45.15L7.543 45.15 7.543 47.198 1.81 47.198 1.81 38.512 7.531 38.512 7.531 40.559 3.944 40.559 3.944 41.825 7.456 41.825 7.456 43.884 3.944 43.884 3.944 45.15M19.611 45.15L23.259 45.15 23.259 47.198 17.489 47.198 17.489 38.512 19.611 38.512 19.611 45.15M35.153 41.787L37.436 41.787 37.436 38.512 39.558 38.512 39.558 47.198 37.436 47.198 37.436 43.834 35.153 43.834 35.153 47.198 33.031 47.198 33.031 38.512 35.153 38.512 35.153 41.787M52.768 43.748l-.075.199h1.44l-.05-.15-.67-1.885-.645 1.836zm2.121 2.172h-2.966l-.484 1.278h-2.27l3.474-8.786h1.514l3.612 8.786h-2.396l-.484-1.278zM67.267 47.198L67.267 38.512 68.905 38.512 71.907 42.854 71.907 38.512 74.005 38.512 74.005 47.198 72.342 47.198 69.376 42.966 69.376 47.198 67.267 47.198M87.275 45.175c1.465 0 2.21-1.166 2.21-2.308 0-1.141-.745-2.345-2.21-2.345H86.11v4.653h1.166zm0-6.663c2.867 0 4.307 2.183 4.307 4.355 0 2.171-1.44 4.33-4.307 4.33H84v-8.685h3.276zM103.4 45.15L106.999 45.15 106.999 47.198 101.266 47.198 101.266 38.512 106.987 38.512 106.987 40.559 103.4 40.559 103.4 41.825 106.912 41.825 106.912 43.884 103.4 43.884 103.4 45.15M119.067 45.15L122.716 45.15 122.716 47.198 116.945 47.198 116.945 38.512 119.067 38.512 119.067 45.15"/>
    </g>
</svg>
